<svg width="702" height="428" viewBox="0 0 702 428" fill="none" xmlns="http://www.w3.org/2000/svg">
<path d="M0 373.113H136.922V427.882H6.84611C3.06511 427.882 0 424.816 0 421.035V373.113Z" fill="black" fill-opacity="0.1"/>
<path fill-rule="evenodd" clip-rule="evenodd" d="M26.0164 413.848C33.5784 413.848 39.7086 407.717 39.7086 400.155C39.7086 392.593 33.5784 386.463 26.0164 386.463C18.4544 386.463 12.3242 392.593 12.3242 400.155C12.3242 407.717 18.4544 413.848 26.0164 413.848Z" fill="white" fill-opacity="0.1" stroke="white" stroke-opacity="0.3" stroke-width="0.821532"/>
<g clip-path="url(#clip0_1351_20058)">
<path d="M26.0121 393.309L19.166 400.155L26.0121 407.001L32.8582 400.155L26.0121 393.309Z" fill="#00CFFD" stroke="black" stroke-width="0.821532" stroke-miterlimit="10" stroke-linecap="round" stroke-linejoin="round"/>
<path fill-rule="evenodd" clip-rule="evenodd" d="M24.2999 400.557C24.1394 400.397 23.8794 400.397 23.7189 400.557C23.5585 400.718 23.5585 400.978 23.7189 401.138L25.7936 403.213C25.8707 403.29 25.9752 403.333 26.0841 403.333C26.193 403.333 26.2975 403.29 26.3746 403.213L28.4493 401.138C28.6097 400.978 28.6097 400.718 28.4493 400.557C28.2888 400.397 28.0288 400.397 27.8683 400.557L26.4968 401.929L26.4968 397.044C26.4968 396.817 26.3129 396.633 26.086 396.633C25.8591 396.633 25.6752 396.817 25.6752 397.044L25.6752 401.933L24.2999 400.557Z" fill="black"/>
</g>
<g clip-path="url(#clip1_1351_20058)">
<rect x="46.5547" y="389.598" width="45.4121" height="4.37707" rx="2.18853" fill="white" fill-opacity="0.6"/>
<rect x="46.5547" y="399.538" width="31.7337" height="2.18853" rx="1.09427" fill="white" fill-opacity="0.3"/>
<g clip-path="url(#clip2_1351_20058)">
<rect x="46.5547" y="407.29" width="75.3071" height="3.42305" rx="1.71153" fill="black" fill-opacity="0.2"/>
<rect x="47.2393" y="407.974" width="49.2919" height="2.05383" rx="1.02692" fill="#00CFFD" stroke="black" stroke-opacity="0.05" stroke-width="0.247119"/>
</g>
</g>
<g clip-path="url(#clip3_1351_20058)">
<rect x="6.8457" y="39.982" width="123.23" height="19.1691" rx="3.42305" fill="black" fill-opacity="0.2"/>
<path d="M13.7463 45.9309C14.0192 45.8775 14.2832 45.836 14.5383 45.8063C14.7935 45.7707 15.0842 45.7529 15.4105 45.7529C15.8911 45.7529 16.2857 45.8271 16.5942 45.9754C16.9087 46.1178 17.1431 46.3077 17.2973 46.545C17.4516 46.7764 17.5287 47.0256 17.5287 47.2926C17.5287 47.6961 17.416 48.0254 17.1905 48.2805C16.9651 48.5297 16.6328 48.7196 16.1937 48.8501C16.526 48.9747 16.7989 49.1527 17.0125 49.3841C17.2261 49.6155 17.3329 49.9151 17.3329 50.283C17.3329 50.7102 17.2054 51.0662 16.9502 51.351C16.6951 51.6358 16.3569 51.8494 15.9356 51.9918C15.5203 52.1283 15.0694 52.1965 14.5828 52.1965C14.1616 52.1965 13.7937 52.1639 13.4793 52.0986C13.1648 52.0393 12.9037 51.977 12.6961 51.9117L13.7463 45.9309ZM15.3749 46.4204C15.191 46.4204 15.0278 46.4264 14.8854 46.4382C14.743 46.4501 14.6125 46.4679 14.4938 46.4916L14.129 48.5475H15.0011C15.5767 48.5475 16.0039 48.4348 16.2827 48.2093C16.5616 47.9779 16.701 47.7109 16.701 47.4083C16.701 47.1295 16.5883 46.8951 16.3628 46.7052C16.1433 46.5154 15.814 46.4204 15.3749 46.4204ZM14.0133 49.2061L13.6395 51.3688C13.9539 51.4519 14.2892 51.4934 14.6451 51.4934C15.2266 51.4934 15.6746 51.3836 15.989 51.1641C16.3094 50.9386 16.4696 50.6538 16.4696 50.3097C16.4696 50.108 16.4133 49.924 16.3005 49.7579C16.1878 49.5918 16.0068 49.4583 15.7576 49.3574C15.5144 49.2565 15.191 49.2061 14.7875 49.2061H14.0133ZM19.5418 52.1965C19.3044 52.1965 19.0849 52.1431 18.8832 52.0363C18.6874 51.9295 18.5302 51.7812 18.4115 51.5913C18.2928 51.3955 18.2335 51.1641 18.2335 50.8971C18.2335 50.82 18.2365 50.7428 18.2424 50.6657C18.2483 50.5826 18.2572 50.4966 18.2691 50.4076L18.7764 47.4617H19.5774L19.0612 50.3898C19.0552 50.4491 19.0493 50.5025 19.0434 50.55C19.0374 50.5915 19.0345 50.639 19.0345 50.6924C19.0345 50.9594 19.1116 51.1582 19.2659 51.2887C19.4201 51.4192 19.6011 51.4845 19.8088 51.4845C20.0342 51.4845 20.2538 51.4163 20.4674 51.2798C20.6869 51.1374 20.8797 50.9357 21.0459 50.6746C21.212 50.4135 21.3277 50.0991 21.393 49.7312L21.7935 47.4617H22.5945L22.0071 50.8348C22.0011 50.8645 21.9952 50.9001 21.9893 50.9416C21.9893 50.9772 21.9893 51.0158 21.9893 51.0573C21.9893 51.2234 22.0367 51.3421 22.1317 51.4133C22.2266 51.4786 22.3512 51.5112 22.5055 51.5112L22.2296 52.1342C21.9092 52.1342 21.6629 52.0571 21.4909 51.9028C21.3247 51.7426 21.2417 51.4964 21.2417 51.1641V51.084C20.8085 51.8257 20.2419 52.1965 19.5418 52.1965ZM26.538 48.4674C26.366 48.3488 26.1731 48.2449 25.9595 48.1559C25.7519 48.0669 25.5145 48.0224 25.2475 48.0224C24.9687 48.0224 24.7521 48.0699 24.5978 48.1648C24.4436 48.2598 24.3664 48.3844 24.3664 48.5386C24.3664 48.6276 24.3902 48.7137 24.4376 48.7967C24.491 48.8738 24.583 48.9569 24.7135 49.0459C24.85 49.1349 25.0399 49.2417 25.2831 49.3663C25.6866 49.568 25.9862 49.7787 26.182 49.9982C26.3778 50.2118 26.4757 50.4758 26.4757 50.7903C26.4757 51.1048 26.3927 51.3658 26.2265 51.5735C26.0604 51.7812 25.8379 51.9384 25.559 52.0452C25.2802 52.1461 24.9657 52.1965 24.6156 52.1965C24.2537 52.1965 23.9333 52.152 23.6545 52.063C23.3815 51.9681 23.1442 51.8464 22.9425 51.6981L23.3964 51.0395C23.5566 51.17 23.7464 51.2798 23.9659 51.3688C24.1855 51.4578 24.4258 51.5023 24.6868 51.5023C24.9835 51.5023 25.2179 51.4459 25.3899 51.3332C25.562 51.2205 25.648 51.081 25.648 50.9149C25.648 50.7606 25.5828 50.6182 25.4522 50.4877C25.3276 50.3572 25.0814 50.1999 24.7135 50.016C24.4169 49.8677 24.1855 49.7253 24.0193 49.5888C23.8532 49.4464 23.7375 49.2951 23.6723 49.1349C23.607 48.9747 23.5744 48.7908 23.5744 48.5831C23.5744 48.3458 23.6456 48.1352 23.788 47.9512C23.9303 47.7673 24.1291 47.6219 24.3842 47.5151C24.6394 47.4083 24.9331 47.3549 25.2653 47.3549C25.5976 47.3549 25.8943 47.3994 26.1553 47.4884C26.4223 47.5715 26.6567 47.6724 26.8584 47.791L26.538 48.4674ZM30.7596 48.3962C30.6113 48.3013 30.4511 48.2242 30.279 48.1648C30.1069 48.0996 29.9171 48.0669 29.7094 48.0669C29.3831 48.0669 29.0953 48.153 28.8461 48.325C28.6028 48.4971 28.413 48.7315 28.2765 49.0281C28.14 49.3188 28.0718 49.6481 28.0718 50.016C28.0718 50.4669 28.1845 50.8259 28.41 51.0929C28.6414 51.354 28.9499 51.4845 29.3356 51.4845C29.5611 51.4845 29.7598 51.4578 29.9319 51.4044C30.104 51.351 30.2612 51.2887 30.4036 51.2175L30.5015 51.9206C30.3532 51.9859 30.1722 52.0482 29.9586 52.1075C29.7509 52.1668 29.4988 52.1965 29.2021 52.1965C28.8164 52.1965 28.4753 52.1105 28.1786 51.9384C27.8879 51.7663 27.6594 51.526 27.4933 51.2175C27.3331 50.903 27.253 50.5381 27.253 50.1228C27.253 49.6244 27.3539 49.1675 27.5556 48.7522C27.7633 48.331 28.054 47.9928 28.4278 47.7376C28.8075 47.4825 29.2555 47.3549 29.7717 47.3549C30.0506 47.3549 30.2968 47.3905 30.5104 47.4617C30.7299 47.527 30.9228 47.6101 31.0889 47.7109L30.7596 48.3962ZM31.2163 50.2652C31.2163 49.6897 31.3409 49.1853 31.5901 48.7522C31.8452 48.3132 32.1953 47.972 32.6403 47.7287C33.0853 47.4795 33.5925 47.3549 34.1621 47.3549C34.5122 47.3549 34.8178 47.3905 35.0788 47.4617C35.3458 47.5329 35.5654 47.6041 35.7374 47.6753L35.1767 50.8348C35.1708 50.8645 35.1649 50.9001 35.1589 50.9416C35.1589 50.9772 35.1589 51.0158 35.1589 51.0573C35.1589 51.2234 35.2064 51.3421 35.3013 51.4133C35.3963 51.4786 35.5209 51.5112 35.6751 51.5112L35.3992 52.1342C35.0788 52.1342 34.8326 52.0571 34.6605 51.9028C34.4944 51.7426 34.4113 51.4964 34.4113 51.1641C34.2452 51.4489 34.0346 51.6922 33.7794 51.8939C33.5302 52.0956 33.2365 52.1965 32.8984 52.1965C32.6076 52.1965 32.3347 52.1194 32.0796 51.9651C31.8244 51.8049 31.6168 51.5824 31.4566 51.2976C31.2964 51.0069 31.2163 50.6627 31.2163 50.2652ZM34.8563 48.147C34.7436 48.1114 34.6249 48.0847 34.5003 48.0669C34.3817 48.0432 34.2363 48.0313 34.0642 48.0313C33.6548 48.0313 33.2988 48.1233 32.9963 48.3072C32.6937 48.4912 32.4563 48.7463 32.2843 49.0726C32.1181 49.393 32.0351 49.7579 32.0351 50.1673C32.0351 50.4521 32.0855 50.6924 32.1864 50.8882C32.2932 51.084 32.4296 51.2323 32.5958 51.3332C32.7619 51.4341 32.934 51.4845 33.1119 51.4845C33.3552 51.4845 33.5777 51.4014 33.7794 51.2353C33.9812 51.0692 34.1532 50.8378 34.2956 50.5411C34.444 50.2444 34.5508 49.9062 34.616 49.5265L34.8563 48.147ZM37.2041 48.7611C37.21 48.7315 37.213 48.6988 37.213 48.6632C37.2189 48.6217 37.2219 48.5802 37.2219 48.5386C37.2219 48.3725 37.1744 48.2568 37.0795 48.1915C36.9846 48.1203 36.86 48.0847 36.7057 48.0847L36.9816 47.4617C37.2961 47.4617 37.5364 47.5389 37.7025 47.6931C37.8746 47.8415 37.9606 48.064 37.9606 48.3606V48.5386C38.1327 48.1174 38.3522 47.8148 38.6192 47.6308C38.8921 47.4469 39.2007 47.3549 39.5448 47.3549C39.6813 47.3549 39.797 47.3668 39.8919 47.3905C39.9928 47.4083 40.0758 47.4321 40.1411 47.4617L39.7851 48.2449C39.7139 48.2153 39.6397 48.1945 39.5626 48.1826C39.4855 48.1708 39.3965 48.1648 39.2956 48.1648C39.082 48.1648 38.8684 48.242 38.6548 48.3962C38.4471 48.5446 38.2573 48.7937 38.0852 49.1438C37.9191 49.4939 37.7826 49.9745 37.6758 50.5856L37.4177 52.0897H36.6167L37.2041 48.7611Z" fill="white"/>
<rect x="6.8457" y="67.3664" width="31.7337" height="2.18853" rx="1.09427" fill="white" fill-opacity="0.3"/>
<rect x="6.8457" y="75.0318" width="123.23" height="19.1691" rx="3.42305" fill="white" fill-opacity="0.1"/>
<g clip-path="url(#clip4_1351_20058)">
<path d="M21.9086 90.778H15.7471C15.3706 90.778 15.0625 90.47 15.0625 90.0934V79.1397C15.0625 78.7631 15.3706 78.455 15.7471 78.455H21.9086V90.778Z" stroke="white" stroke-opacity="0.6" stroke-width="0.821532" stroke-miterlimit="10" stroke-linecap="round" stroke-linejoin="round"/>
<path d="M28.0707 90.7784H21.9092V78.4554H28.0707C28.4472 78.4554 28.7553 78.7635 28.7553 79.14V90.0938C28.7553 90.4703 28.4472 90.7784 28.0707 90.7784Z" stroke="white" stroke-opacity="0.6" stroke-width="0.821532" stroke-miterlimit="10" stroke-linecap="round" stroke-linejoin="round"/>
<path d="M16.4326 84.6171H20.5403" stroke="white" stroke-opacity="0.6" stroke-width="0.821532" stroke-miterlimit="10"/>
<path d="M16.4326 81.8789H20.5403" stroke="white" stroke-opacity="0.6" stroke-width="0.821532" stroke-miterlimit="10"/>
<path d="M16.4326 87.3553H20.5403" stroke="white" stroke-opacity="0.6" stroke-width="0.821532" stroke-miterlimit="10"/>
<path d="M23.2764 84.6171H27.384" stroke="white" stroke-opacity="0.6" stroke-width="0.821532" stroke-miterlimit="10"/>
<path d="M23.2764 81.8789H27.384" stroke="white" stroke-opacity="0.6" stroke-width="0.821532" stroke-miterlimit="10"/>
<rect x="36.9678" y="83.5221" width="31.7337" height="2.18853" rx="1.09427" fill="white" fill-opacity="0.3"/>
</g>
<g clip-path="url(#clip5_1351_20058)">
<path d="M21.2251 102.414C19.6231 102.414 17.6035 103.591 17.6377 106.631L15.091 109.931C15.0157 110.026 15.1047 110.15 15.2416 110.15L16.9394 110.992C17.0284 111.622 17.357 113.456 17.535 114.374C17.5966 114.661 20.4035 114.442 20.4035 114.442L21.2251 116.106" stroke="white" stroke-opacity="0.6" stroke-width="0.821532" stroke-miterlimit="10" stroke-linecap="round" stroke-linejoin="round"/>
<path fill-rule="evenodd" clip-rule="evenodd" d="M24.544 102.552C24.6205 102.339 24.5093 102.104 24.2957 102.027C24.0821 101.951 23.847 102.062 23.7706 102.275L23.0723 104.227C22.9958 104.44 23.107 104.675 23.3206 104.752C23.5342 104.828 23.7693 104.717 23.8457 104.503L24.544 102.552ZM28.7873 104.619C28.9689 104.483 29.0059 104.226 28.87 104.044C28.734 103.863 28.4766 103.826 28.295 103.962L25.9536 105.714C25.772 105.85 25.735 106.108 25.8709 106.289C26.0068 106.471 26.2643 106.508 26.4459 106.372L28.7873 104.619ZM26.1079 109.14C26.1245 108.914 26.3214 108.744 26.5476 108.761L28.7863 108.925C29.0125 108.942 29.1825 109.139 29.1659 109.365C29.1493 109.591 28.9524 109.761 28.7262 109.744L26.4875 109.58C26.2612 109.564 26.0913 109.367 26.1079 109.14ZM21.7192 112.896C21.4923 112.896 21.3084 113.08 21.3084 113.306C21.3084 113.533 21.4923 113.717 21.7192 113.717H23.5197C23.7466 113.717 23.9305 113.533 23.9305 113.306C23.9305 113.08 23.7466 112.896 23.5197 112.896H21.7192ZM21.3084 111.54C21.3084 111.313 21.4923 111.129 21.7192 111.129H21.8276C20.9244 110.371 19.6878 108.707 20.6983 107.377C21.6841 106.083 23.5531 106.083 24.5389 107.377C25.5484 108.706 24.3201 110.372 23.4148 111.129H23.5197C23.7466 111.129 23.9305 111.313 23.9305 111.54C23.9305 111.767 23.7466 111.95 23.5197 111.95H21.7192C21.4923 111.95 21.3084 111.767 21.3084 111.54ZM23.0353 111.129V109.378C23.2246 109.241 23.3478 109.019 23.3478 108.767C23.3478 108.351 23.0106 108.014 22.5947 108.014C22.1788 108.014 21.8416 108.351 21.8416 108.767C21.8416 109.044 21.9911 109.286 22.2138 109.417V111.129H23.0353ZM22.58 108.7C22.5858 108.7 22.5917 108.699 22.5977 108.699L22.5947 108.699C22.5897 108.699 22.5847 108.699 22.58 108.7Z" fill="white" fill-opacity="0.6"/>
<rect x="36.9678" y="107.872" width="45.8946" height="2.78149" rx="1.39075" fill="white" fill-opacity="0.3"/>
</g>
<g clip-path="url(#clip6_1351_20058)">
<path d="M21.9096 127.063L15.0635 133.909L21.9096 140.755L28.7557 133.909L21.9096 127.063Z" stroke="white" stroke-opacity="0.6" stroke-width="0.821532" stroke-miterlimit="10" stroke-linecap="round" stroke-linejoin="round"/>
<path fill-rule="evenodd" clip-rule="evenodd" d="M20.1963 134.313C20.0359 134.152 19.7758 134.152 19.6154 134.313C19.455 134.473 19.455 134.733 19.6154 134.894L21.6901 136.968C21.7672 137.045 21.8716 137.089 21.9806 137.089C22.0895 137.089 22.194 137.045 22.271 136.968L24.3457 134.894C24.5062 134.733 24.5062 134.473 24.3457 134.313C24.1853 134.152 23.9252 134.152 23.7648 134.313L22.3933 135.684L22.3933 130.799C22.3933 130.572 22.2094 130.388 21.9825 130.388C21.7556 130.388 21.5717 130.572 21.5717 130.799L21.5717 135.688L20.1963 134.313Z" fill="white" fill-opacity="0.6"/>
<rect x="36.9678" y="132.518" width="45.8946" height="2.78149" rx="1.39075" fill="white" fill-opacity="0.3"/>
</g>
<path d="M10.1811 161.387C9.78131 161.387 9.41984 161.507 9.0967 161.748C8.77357 161.984 8.51615 162.31 8.32446 162.726C8.13277 163.137 8.03692 163.61 8.03692 164.147C8.03692 164.739 8.18206 165.191 8.47234 165.503C8.76261 165.815 9.1323 165.971 9.58141 165.971C9.83882 165.971 10.0661 165.935 10.2633 165.864C10.4659 165.793 10.6631 165.708 10.8548 165.609L10.9862 166.316C10.7836 166.409 10.559 166.489 10.3126 166.554C10.0661 166.62 9.78679 166.653 9.47461 166.653C9.0255 166.653 8.63117 166.557 8.2916 166.365C7.95751 166.174 7.69736 165.897 7.51114 165.536C7.32493 165.169 7.23182 164.725 7.23182 164.205C7.23182 163.712 7.30302 163.254 7.44542 162.833C7.5933 162.406 7.80142 162.033 8.06979 161.715C8.33815 161.398 8.65581 161.151 9.02276 160.976C9.39519 160.795 9.80322 160.705 10.2468 160.705C10.57 160.705 10.8548 160.749 11.1012 160.836C11.3477 160.924 11.5531 161.014 11.7174 161.107L11.3641 161.748C11.1998 161.644 11.0246 161.559 10.8383 161.494C10.6576 161.422 10.4385 161.387 10.1811 161.387ZM12.9563 166.653C12.7372 166.653 12.5346 166.604 12.3484 166.505C12.1676 166.406 12.0225 166.269 11.913 166.094C11.8034 165.913 11.7486 165.7 11.7486 165.453C11.7486 165.382 11.7514 165.311 11.7569 165.24C11.7623 165.163 11.7706 165.084 11.7815 165.002L12.2498 162.282H12.9892L12.5127 164.985C12.5072 165.04 12.5017 165.089 12.4962 165.133C12.4908 165.171 12.488 165.215 12.488 165.264C12.488 165.511 12.5592 165.694 12.7016 165.815C12.844 165.935 13.0111 165.996 13.2028 165.996C13.4109 165.996 13.6135 165.933 13.8107 165.807C14.0133 165.675 14.1913 165.489 14.3447 165.248C14.498 165.007 14.6048 164.717 14.6651 164.377L15.0348 162.282H15.7742L15.2319 165.396C15.2265 165.423 15.221 165.456 15.2155 165.494C15.2155 165.527 15.2155 165.563 15.2155 165.601C15.2155 165.755 15.2593 165.864 15.347 165.93C15.4346 165.99 15.5496 166.02 15.692 166.02L15.4373 166.595C15.1416 166.595 14.9143 166.524 14.7555 166.382C14.6021 166.234 14.5254 166.007 14.5254 165.7V165.626C14.1256 166.311 13.6026 166.653 12.9563 166.653ZM17.0894 163.482C17.0949 163.454 17.0977 163.424 17.0977 163.391C17.1031 163.353 17.1059 163.315 17.1059 163.276C17.1059 163.123 17.0621 163.016 16.9744 162.956C16.8868 162.89 16.7718 162.857 16.6294 162.857L16.8841 162.282C17.1743 162.282 17.3961 162.353 17.5495 162.496C17.7083 162.633 17.7877 162.838 17.7877 163.112V163.276C17.9466 162.887 18.1492 162.608 18.3957 162.438C18.6476 162.269 18.9324 162.184 19.2501 162.184C19.376 162.184 19.4828 162.195 19.5705 162.217C19.6636 162.233 19.7402 162.255 19.8005 162.282L19.4719 163.005C19.4062 162.978 19.3377 162.959 19.2665 162.948C19.1953 162.937 19.1131 162.931 19.02 162.931C18.8229 162.931 18.6257 163.002 18.4285 163.145C18.2368 163.282 18.0616 163.512 17.9028 163.835C17.7494 164.158 17.6234 164.602 17.5249 165.166L17.2866 166.554H16.5472L17.0894 163.482ZM22.7438 163.211C22.585 163.101 22.407 163.005 22.2098 162.923C22.0181 162.841 21.7991 162.8 21.5526 162.8C21.2952 162.8 21.0953 162.844 20.9529 162.931C20.8105 163.019 20.7393 163.134 20.7393 163.276C20.7393 163.358 20.7612 163.438 20.805 163.515C20.8543 163.586 20.9392 163.662 21.0597 163.745C21.1857 163.827 21.3609 163.925 21.5855 164.04C21.9579 164.227 22.2345 164.421 22.4152 164.624C22.596 164.821 22.6863 165.065 22.6863 165.355C22.6863 165.645 22.6096 165.886 22.4563 166.078C22.3029 166.269 22.0976 166.415 21.8401 166.513C21.5827 166.606 21.2925 166.653 20.9693 166.653C20.6352 166.653 20.3395 166.612 20.0821 166.53C19.8301 166.442 19.611 166.33 19.4248 166.193L19.8438 165.585C19.9917 165.705 20.167 165.807 20.3696 165.889C20.5722 165.971 20.7941 166.012 21.035 166.012C21.3089 166.012 21.5252 165.96 21.684 165.856C21.8429 165.752 21.9223 165.623 21.9223 165.47C21.9223 165.327 21.862 165.196 21.7416 165.075C21.6265 164.955 21.3993 164.81 21.0597 164.64C20.7858 164.503 20.5722 164.372 20.4189 164.246C20.2655 164.114 20.1587 163.975 20.0985 163.827C20.0382 163.679 20.0081 163.509 20.0081 163.317C20.0081 163.098 20.0738 162.904 20.2053 162.734C20.3367 162.564 20.5202 162.43 20.7557 162.332C20.9912 162.233 21.2623 162.184 21.569 162.184C21.8757 162.184 22.1496 162.225 22.3906 162.307C22.637 162.384 22.8534 162.477 23.0396 162.586L22.7438 163.211ZM25.3837 166.653C24.9784 166.653 24.6279 166.571 24.3321 166.406C24.0364 166.242 23.8064 166.015 23.6421 165.725C23.4832 165.429 23.4038 165.095 23.4038 164.722C23.4038 164.246 23.4997 163.816 23.6913 163.432C23.8885 163.049 24.1624 162.745 24.5129 162.521C24.8634 162.296 25.2769 162.184 25.7534 162.184C26.1587 162.184 26.5092 162.266 26.805 162.43C27.1007 162.594 27.328 162.822 27.4868 163.112C27.6511 163.402 27.7333 163.736 27.7333 164.114C27.7333 164.585 27.6374 165.015 27.4458 165.404C27.2541 165.787 26.9802 166.091 26.6242 166.316C26.2737 166.541 25.8602 166.653 25.3837 166.653ZM25.4084 165.996C25.737 165.996 26.0163 165.916 26.2463 165.757C26.4818 165.593 26.6626 165.374 26.7885 165.1C26.9145 164.826 26.9775 164.52 26.9775 164.18C26.9775 163.928 26.9282 163.704 26.8296 163.506C26.731 163.304 26.5886 163.142 26.4024 163.022C26.2162 162.901 25.9916 162.841 25.7287 162.841C25.4056 162.841 25.1263 162.923 24.8908 163.087C24.6553 163.246 24.4745 163.463 24.3486 163.736C24.2226 164.01 24.1596 164.317 24.1596 164.657C24.1596 164.903 24.2089 165.128 24.3075 165.33C24.4061 165.533 24.5485 165.694 24.7347 165.815C24.9209 165.935 25.1455 165.996 25.4084 165.996ZM31.3282 163.211C31.1694 163.101 30.9914 163.005 30.7942 162.923C30.6025 162.841 30.3834 162.8 30.137 162.8C29.8796 162.8 29.6797 162.844 29.5373 162.931C29.3949 163.019 29.3237 163.134 29.3237 163.276C29.3237 163.358 29.3456 163.438 29.3894 163.515C29.4387 163.586 29.5236 163.662 29.6441 163.745C29.77 163.827 29.9453 163.925 30.1698 164.04C30.5423 164.227 30.8188 164.421 30.9996 164.624C31.1803 164.821 31.2707 165.065 31.2707 165.355C31.2707 165.645 31.194 165.886 31.0407 166.078C30.8873 166.269 30.6819 166.415 30.4245 166.513C30.1671 166.606 29.8768 166.653 29.5537 166.653C29.2196 166.653 28.9238 166.612 28.6664 166.53C28.4145 166.442 28.1954 166.33 28.0092 166.193L28.4282 165.585C28.5761 165.705 28.7513 165.807 28.954 165.889C29.1566 165.971 29.3784 166.012 29.6194 166.012C29.8933 166.012 30.1096 165.96 30.2684 165.856C30.4272 165.752 30.5067 165.623 30.5067 165.47C30.5067 165.327 30.4464 165.196 30.3259 165.075C30.2109 164.955 29.9836 164.81 29.6441 164.64C29.3702 164.503 29.1566 164.372 29.0033 164.246C28.8499 164.114 28.7431 163.975 28.6829 163.827C28.6226 163.679 28.5925 163.509 28.5925 163.317C28.5925 163.098 28.6582 162.904 28.7897 162.734C28.9211 162.564 29.1046 162.43 29.3401 162.332C29.5756 162.233 29.8467 162.184 30.1534 162.184C30.4601 162.184 30.734 162.225 30.9749 162.307C31.2214 162.384 31.4377 162.477 31.6239 162.586L31.3282 163.211Z" fill="white" fill-opacity="0.6"/>
<g clip-path="url(#clip7_1351_20058)">
<g clip-path="url(#clip8_1351_20058)">
<path d="M29.7797 183.2C29.7797 187.548 26.2549 191.073 21.9067 191.073C17.5586 191.073 14.0337 187.548 14.0337 183.2C14.0337 178.852 17.5586 175.327 21.9067 175.327C26.2549 175.327 29.7797 178.852 29.7797 183.2Z" stroke="white" stroke-opacity="0.2" stroke-width="0.68461"/>
</g>
<rect x="36.9678" y="182.106" width="31.7337" height="2.18853" rx="1.09427" fill="white" fill-opacity="0.3"/>
</g>
<g clip-path="url(#clip9_1351_20058)">
<path d="M29.7797 206.477C29.7797 210.825 26.2549 214.35 21.9067 214.35C17.5586 214.35 14.0337 210.825 14.0337 206.477C14.0337 202.129 17.5586 198.604 21.9067 198.604C26.2549 198.604 29.7797 202.129 29.7797 206.477Z" stroke="white" stroke-opacity="0.2" stroke-width="0.68461"/>
<rect x="36.9678" y="205.086" width="37.5501" height="2.78149" rx="1.39075" fill="white" fill-opacity="0.3"/>
</g>
<g clip-path="url(#clip10_1351_20058)">
<g clip-path="url(#clip11_1351_20058)">
<path d="M29.7797 229.754C29.7797 234.102 26.2549 237.627 21.9067 237.627C17.5586 237.627 14.0337 234.102 14.0337 229.754C14.0337 225.406 17.5586 221.881 21.9067 221.881C26.2549 221.881 29.7797 225.406 29.7797 229.754Z" stroke="white" stroke-opacity="0.2" stroke-width="0.68461"/>
</g>
<rect x="36.9678" y="228.363" width="41.7224" height="2.78149" rx="1.39075" fill="white" fill-opacity="0.3"/>
</g>
<path d="M10.4851 265.218C10.6384 265.404 10.7672 265.546 10.8712 265.645C10.9807 265.743 11.0821 265.812 11.1752 265.85C11.2738 265.883 11.3833 265.899 11.5038 265.899L11.2163 266.565C10.9753 266.565 10.7672 266.516 10.5919 266.417C10.4221 266.318 10.2414 266.149 10.0497 265.908L8.43948 263.854L7.9712 266.507H7.19075L8.20123 260.757H8.98169L8.52984 263.312L11.2573 260.773L11.7338 261.299L9.18707 263.583L10.4851 265.218ZM13.7314 266.606C13.3699 266.606 13.0495 266.529 12.7702 266.376C12.4963 266.217 12.28 265.992 12.1212 265.702C11.9678 265.406 11.8911 265.059 11.8911 264.659C11.8911 264.204 11.9842 263.785 12.1705 263.402C12.3621 263.019 12.6305 262.712 12.9756 262.482C13.3261 262.252 13.7341 262.137 14.1996 262.137C14.5173 262.137 14.7857 262.197 15.0047 262.317C15.2293 262.438 15.4018 262.594 15.5223 262.786C15.6428 262.977 15.703 263.183 15.703 263.402C15.703 263.703 15.6318 263.952 15.4894 264.15C15.347 264.347 15.1636 264.5 14.939 264.61C14.7145 264.714 14.4707 264.788 14.2079 264.831C13.9504 264.875 13.704 264.897 13.4685 264.897C13.3206 264.897 13.1727 264.892 13.0248 264.881C12.8824 264.864 12.7565 264.848 12.6469 264.831C12.6908 265.193 12.8195 265.469 13.0331 265.661C13.2467 265.853 13.5205 265.949 13.8546 265.949C14.1284 265.949 14.3722 265.913 14.5858 265.842C14.7994 265.771 14.9801 265.699 15.128 265.628L15.1937 266.285C15.0294 266.362 14.8213 266.436 14.5693 266.507C14.3174 266.573 14.0381 266.606 13.7314 266.606ZM14.1421 262.761C13.8847 262.761 13.6519 262.827 13.4438 262.958C13.2357 263.084 13.0632 263.26 12.9263 263.484C12.7948 263.703 12.7072 263.955 12.6634 264.24C12.7893 264.262 12.9153 264.281 13.0413 264.297C13.1727 264.308 13.3151 264.314 13.4685 264.314C13.9285 264.314 14.2927 264.251 14.5611 264.125C14.8295 263.993 14.9637 263.772 14.9637 263.459C14.9637 263.268 14.887 263.103 14.7336 262.967C14.5858 262.83 14.3886 262.761 14.1421 262.761ZM16.6361 262.235C17.2057 262.235 17.4905 262.482 17.4905 262.975V263.147C17.6493 262.851 17.8547 262.611 18.1067 262.424C18.3586 262.233 18.6516 262.137 18.9857 262.137C19.2815 262.137 19.5389 262.213 19.7579 262.367C19.977 262.515 20.1441 262.723 20.2591 262.991C20.3796 263.254 20.4398 263.561 20.4398 263.911C20.4398 264.317 20.3796 264.686 20.2591 265.02C20.1441 265.349 19.9852 265.634 19.7826 265.875C19.5799 266.11 19.3527 266.291 19.1007 266.417C18.8488 266.543 18.5886 266.606 18.3203 266.606C18.0574 266.606 17.8109 266.54 17.5809 266.409C17.3563 266.277 17.1811 266.116 17.0551 265.924L16.6361 268.315H15.8967L16.7511 263.427C16.7676 263.333 16.7758 263.257 16.7758 263.197C16.7758 262.939 16.6416 262.81 16.3732 262.81L16.6361 262.235ZM18.2545 265.949C18.512 265.949 18.7475 265.867 18.9611 265.702C19.1801 265.532 19.3554 265.3 19.4868 265.004C19.6183 264.708 19.684 264.369 19.684 263.985C19.684 263.613 19.5991 263.32 19.4293 263.106C19.2595 262.887 19.0377 262.778 18.7639 262.778C18.5448 262.778 18.334 262.846 18.1313 262.983C17.9341 263.12 17.7644 263.312 17.622 263.558C17.4796 263.804 17.3782 264.095 17.318 264.429L17.1701 265.259C17.2906 265.478 17.4467 265.647 17.6384 265.768C17.8301 265.888 18.0355 265.949 18.2545 265.949ZM21.9807 265.029C21.9697 265.1 21.9615 265.165 21.9561 265.226C21.9506 265.28 21.9478 265.33 21.9478 265.374C21.9478 265.56 22.0026 265.705 22.1121 265.809C22.2272 265.913 22.3778 265.965 22.564 265.965C22.6571 265.965 22.7502 265.954 22.8433 265.932C22.9364 265.91 23.0213 265.88 23.098 265.842L23.1719 266.442C23.0733 266.491 22.9583 266.529 22.8269 266.557C22.6954 266.589 22.553 266.606 22.3997 266.606C22.0711 266.606 21.789 266.513 21.5535 266.327C21.3235 266.135 21.2085 265.847 21.2085 265.464C21.2085 265.322 21.2194 265.182 21.2413 265.045L22.0464 260.428H22.7858L21.9807 265.029ZM25.3724 266.606C25.0109 266.606 24.6905 266.529 24.4112 266.376C24.1374 266.217 23.921 265.992 23.7622 265.702C23.6089 265.406 23.5322 265.059 23.5322 264.659C23.5322 264.204 23.6253 263.785 23.8115 263.402C24.0032 263.019 24.2716 262.712 24.6166 262.482C24.9671 262.252 25.3751 262.137 25.8407 262.137C26.1583 262.137 26.4267 262.197 26.6458 262.317C26.8703 262.438 27.0429 262.594 27.1633 262.786C27.2838 262.977 27.3441 263.183 27.3441 263.402C27.3441 263.703 27.2729 263.952 27.1305 264.15C26.9881 264.347 26.8046 264.5 26.5801 264.61C26.3555 264.714 26.1118 264.788 25.8489 264.831C25.5915 264.875 25.345 264.897 25.1095 264.897C24.9616 264.897 24.8138 264.892 24.6659 264.881C24.5235 264.864 24.3975 264.848 24.288 264.831C24.3318 265.193 24.4605 265.469 24.6741 265.661C24.8877 265.853 25.1615 265.949 25.4956 265.949C25.7695 265.949 26.0132 265.913 26.2268 265.842C26.4404 265.771 26.6211 265.699 26.769 265.628L26.8347 266.285C26.6704 266.362 26.4623 266.436 26.2104 266.507C25.9584 266.573 25.6791 266.606 25.3724 266.606ZM25.7832 262.761C25.5258 262.761 25.293 262.827 25.0849 262.958C24.8768 263.084 24.7042 263.26 24.5673 263.484C24.4359 263.703 24.3482 263.955 24.3044 264.24C24.4304 264.262 24.5564 264.281 24.6823 264.297C24.8138 264.308 24.9562 264.314 25.1095 264.314C25.5696 264.314 25.9338 264.251 26.2022 264.125C26.4705 263.993 26.6047 263.772 26.6047 263.459C26.6047 263.268 26.528 263.103 26.3747 262.967C26.2268 262.83 26.0296 262.761 25.7832 262.761ZM28.4497 263.435C28.4552 263.407 28.4579 263.377 28.4579 263.344C28.4634 263.306 28.4661 263.268 28.4661 263.229C28.4661 263.076 28.4223 262.969 28.3347 262.909C28.247 262.843 28.132 262.81 27.9896 262.81L28.2443 262.235C28.5346 262.235 28.7564 262.307 28.9097 262.449C29.0686 262.586 29.148 262.791 29.148 263.065V263.229C29.3068 262.841 29.5095 262.561 29.7559 262.391C30.0079 262.222 30.2927 262.137 30.6103 262.137C30.7363 262.137 30.8431 262.148 30.9307 262.17C31.0238 262.186 31.1005 262.208 31.1607 262.235L30.8321 262.958C30.7664 262.931 30.6979 262.912 30.6267 262.901C30.5555 262.89 30.4734 262.884 30.3803 262.884C30.1831 262.884 29.986 262.956 29.7888 263.098C29.5971 263.235 29.4218 263.465 29.263 263.788C29.1097 264.111 28.9837 264.555 28.8851 265.119L28.6469 266.507H27.9075L28.4497 263.435Z" fill="white" fill-opacity="0.6"/>
<g clip-path="url(#clip12_1351_20058)">
<g clip-path="url(#clip13_1351_20058)">
<path d="M29.7797 283.153C29.7797 287.501 26.2549 291.026 21.9067 291.026C17.5586 291.026 14.0337 287.501 14.0337 283.153C14.0337 278.805 17.5586 275.28 21.9067 275.28C26.2549 275.28 29.7797 278.805 29.7797 283.153Z" stroke="white" stroke-opacity="0.2" stroke-width="0.68461"/>
</g>
<rect x="36.9678" y="281.763" width="23.6427" height="2.78149" rx="1.39075" fill="white" fill-opacity="0.3"/>
</g>
<g clip-path="url(#clip14_1351_20058)">
<path d="M29.7797 306.43C29.7797 310.778 26.2549 314.303 21.9067 314.303C17.5586 314.303 14.0337 310.778 14.0337 306.43C14.0337 302.082 17.5586 298.557 21.9067 298.557C26.2549 298.557 29.7797 302.082 29.7797 306.43Z" stroke="white" stroke-opacity="0.2" stroke-width="0.68461"/>
<rect x="36.9678" y="305.336" width="31.7337" height="2.18853" rx="1.09427" fill="white" fill-opacity="0.3"/>
</g>
<g clip-path="url(#clip15_1351_20058)">
<path d="M29.7797 329.707C29.7797 334.055 26.2549 337.58 21.9067 337.58C17.5586 337.58 14.0337 334.055 14.0337 329.707C14.0337 325.359 17.5586 321.834 21.9067 321.834C26.2549 321.834 29.7797 325.359 29.7797 329.707Z" stroke="white" stroke-opacity="0.2" stroke-width="0.68461"/>
<rect x="36.9678" y="328.316" width="51.4576" height="2.78149" rx="1.39075" fill="white" fill-opacity="0.3"/>
</g>
</g>
<g clip-path="url(#clip16_1351_20058)">
<rect x="13.6943" y="13.6924" width="8.21532" height="8.21532" rx="4.10766" fill="#EB6A5D"/>
<rect x="28.0713" y="13.6924" width="8.21532" height="8.21532" rx="4.10766" fill="#F3BE4F"/>
<rect x="42.4482" y="13.6924" width="8.21532" height="8.21532" rx="4.10766" fill="#64C354"/>
</g>
<path d="M136.921 1.52588e-05H694.193C697.974 1.52588e-05 701.04 3.06512 701.04 6.84612V421.035C701.04 424.816 697.974 427.881 694.193 427.881H136.921V1.52588e-05Z" fill="#1A164A" fill-opacity="0.63"/>
<mask id="mask0_1351_20058" style="mask-type:alpha" maskUnits="userSpaceOnUse" x="136" y="0" width="566" height="428">
<path d="M136.921 1.52588e-05H694.193C697.974 1.52588e-05 701.04 3.06512 701.04 6.84612V421.035C701.04 424.816 697.974 427.881 694.193 427.881H136.921V1.52588e-05Z" fill="#829DFF"/>
</mask>
<g mask="url(#mask0_1351_20058)">
<path fill-rule="evenodd" clip-rule="evenodd" d="M650.538 156.549C676.763 92.4102 720.127 -17.9116 607.968 -82.0915C495.809 -146.271 443.632 -105.175 394.62 -86.2482C345.608 -67.3209 224.366 -54.9968 242.602 21.5103C260.838 98.0173 264.888 231.812 352.007 231.814C439.126 231.817 427.443 195.555 483.395 189.136C539.346 182.718 624.312 220.687 650.538 156.549Z" fill="url(#paint0_linear_1351_20058)"/>
<path fill-rule="evenodd" clip-rule="evenodd" d="M650.538 156.549C676.763 92.4102 720.127 -17.9116 607.968 -82.0915C495.809 -146.271 443.632 -105.175 394.62 -86.2482C345.608 -67.3209 224.366 -54.9968 242.602 21.5103C260.838 98.0173 264.888 231.812 352.007 231.814C439.126 231.817 427.443 195.555 483.395 189.136C539.346 182.718 624.312 220.687 650.538 156.549Z" fill="#14BEFD"/>
<g filter="url(#filter0_d_1351_20058)">
<path fill-rule="evenodd" clip-rule="evenodd" d="M261.35 -54.8014C236.747 17.2976 196.344 141.199 323.617 204.327C450.891 267.456 505.476 218.954 558.033 194.989C610.59 171.023 742.846 149.598 717.848 66.8219C692.85 -15.9546 679.688 -162.527 584.077 -156.854C488.465 -151.18 503.65 -112.145 442.663 -101.455C381.675 -90.7657 285.953 -126.9 261.35 -54.8014Z" fill="url(#paint1_linear_1351_20058)"/>
</g>
<g opacity="0.5" filter="url(#filter1_d_1351_20058)">
<path fill-rule="evenodd" clip-rule="evenodd" d="M270.714 -66.4772C246.624 4.12053 207.062 125.442 331.685 187.256C456.308 249.07 509.757 201.578 561.22 178.112C612.682 154.645 742.185 133.667 717.707 52.6136C693.229 -28.4394 680.341 -171.96 586.721 -166.405C493.101 -160.849 507.969 -122.627 448.252 -112.16C388.534 -101.693 294.805 -137.075 270.714 -66.4772Z" stroke="url(#paint2_linear_1351_20058)" stroke-width="6.78117" stroke-linecap="round" stroke-dasharray="67.81 33.91"/>
</g>
<g opacity="0.2" filter="url(#filter2_d_1351_20058)">
<path fill-rule="evenodd" clip-rule="evenodd" d="M300.008 -54.1679C278.911 8.37972 244.307 115.881 356.711 171.762C469.114 227.643 516.756 185.852 562.798 165.394C608.839 144.936 724.991 127.286 702.386 55.0761C679.781 -17.1336 667.107 -144.762 583.064 -140.543C499.022 -136.323 512.668 -102.245 459.113 -93.4015C405.558 -84.5579 321.104 -116.715 300.008 -54.1679Z" stroke="url(#paint3_linear_1351_20058)" stroke-width="3.39059" stroke-linecap="round" stroke-dasharray="33.91 16.95"/>
</g>
<g filter="url(#filter3_d_1351_20058)">
<path fill-rule="evenodd" clip-rule="evenodd" d="M266.545 -92.1607C241.655 -19.2177 200.778 106.134 329.541 170.001C458.305 233.869 513.529 184.8 566.701 160.554C619.873 136.308 753.678 114.632 728.388 30.8864C703.097 -52.8593 689.78 -201.147 593.05 -195.408C496.32 -189.668 511.682 -150.176 449.981 -139.361C388.279 -128.546 291.436 -165.104 266.545 -92.1607Z" stroke="url(#paint4_linear_1351_20058)" stroke-width="10.1718" stroke-linecap="round" stroke-dasharray="67.81 33.91"/>
</g>
</g>
<path fill-rule="evenodd" clip-rule="evenodd" d="M573.021 26.6999C578.314 26.6999 582.606 22.4087 582.606 17.1153C582.606 11.8219 578.314 7.53079 573.021 7.53079C567.728 7.53079 563.437 11.8219 563.437 17.1153C563.437 22.4087 567.728 26.6999 573.021 26.6999Z" fill="white" fill-opacity="0.1" stroke="white" stroke-opacity="0.3" stroke-width="0.821532"/>
<path d="M579.868 17.1156C579.868 17.8139 579.765 18.4917 579.567 19.1284C579.026 17.944 577.835 17.1156 576.445 17.1156C574.555 17.1156 573.022 18.6492 573.022 20.5387C573.022 21.9285 573.85 23.1197 575.035 23.6605C574.398 23.8591 573.72 23.9617 573.022 23.9617C569.243 23.9617 566.176 20.8947 566.176 17.1156C566.176 13.3366 569.243 10.2695 573.022 10.2695C576.801 10.2695 579.868 13.3366 579.868 17.1156Z" fill="#00CFFD" stroke="black" stroke-width="0.821532" stroke-miterlimit="10" stroke-linecap="round" stroke-linejoin="round"/>
<path d="M575.028 23.6527C573.844 23.1118 573.022 21.9206 573.022 20.5377C573.022 19.7846 573.262 19.0932 573.679 18.5249C573.46 18.4976 573.241 18.4839 573.022 18.4839C570.777 18.4839 568.853 19.8326 568.004 21.7632C569.257 23.1118 571.037 23.9608 573.022 23.9608C573.72 23.9608 574.391 23.8581 575.028 23.6527Z" fill="white" stroke="black" stroke-width="0.821532" stroke-miterlimit="10" stroke-linecap="round"/>
<path d="M573.788 18.3748H573.795C574.172 17.9093 574.678 17.5396 575.253 17.3274C575.575 16.8756 575.76 16.3347 575.76 15.7459C575.76 14.233 574.535 13.0075 573.022 13.0075C571.509 13.0075 570.283 14.233 570.283 15.7459C570.283 17.2589 571.509 18.4844 573.022 18.4844C573.289 18.4844 573.549 18.4433 573.795 18.3748" fill="white"/>
<path d="M573.788 18.3748H573.795C574.172 17.9093 574.678 17.5396 575.253 17.3274C575.575 16.8756 575.76 16.3347 575.76 15.7459C575.76 14.233 574.535 13.0075 573.022 13.0075C571.509 13.0075 570.283 14.233 570.283 15.7459C570.283 17.2589 571.509 18.4844 573.022 18.4844C573.289 18.4844 573.549 18.4433 573.795 18.3748" stroke="black" stroke-width="0.821532" stroke-miterlimit="10" stroke-linecap="round" stroke-linejoin="round"/>
<path d="M576.445 23.9624C578.335 23.9624 579.868 22.4298 579.868 20.5393C579.868 18.6488 578.335 17.1163 576.445 17.1163C574.554 17.1163 573.021 18.6488 573.021 20.5393C573.021 22.4298 574.554 23.9624 576.445 23.9624Z" fill="black" stroke="black" stroke-width="0.821532" stroke-miterlimit="10" stroke-linecap="round" stroke-linejoin="round"/>
<path d="M574.798 20.0931L576.03 21.3254L578.084 19.2716" stroke="#00CFFD" stroke-width="0.821532" stroke-miterlimit="10"/>
<g clip-path="url(#clip17_1351_20058)">
<path d="M594.001 18.3416C594.193 18.5744 594.354 18.7524 594.484 18.8756C594.621 18.9988 594.748 19.0844 594.864 19.1323C594.987 19.1734 595.124 19.1939 595.275 19.1939L594.915 20.0257C594.614 20.0257 594.354 19.9641 594.135 19.8409C593.923 19.7177 593.697 19.5054 593.457 19.2042L591.444 16.6369L590.859 19.9538H589.883L591.147 12.7654H592.122L591.557 15.9591L594.967 12.786L595.562 13.4432L592.379 16.298L594.001 18.3416ZM598.059 20.0771C597.607 20.0771 597.207 19.9812 596.858 19.7895C596.515 19.591 596.245 19.3103 596.046 18.9475C595.855 18.5778 595.759 18.143 595.759 17.6433C595.759 17.0751 595.875 16.5513 596.108 16.0721C596.348 15.5929 596.683 15.2095 597.114 14.922C597.553 14.6344 598.063 14.4907 598.645 14.4907C599.042 14.4907 599.377 14.566 599.651 14.7166C599.932 14.8672 600.147 15.0623 600.298 15.3019C600.449 15.5415 600.524 15.7983 600.524 16.0721C600.524 16.4486 600.435 16.7601 600.257 17.0066C600.079 17.2531 599.849 17.4447 599.569 17.5817C599.288 17.7117 598.983 17.8042 598.655 17.8589C598.333 17.9137 598.025 17.9411 597.731 17.9411C597.546 17.9411 597.361 17.9342 597.176 17.9205C596.998 17.9 596.841 17.8795 596.704 17.8589C596.758 18.3108 596.919 18.6565 597.186 18.8961C597.453 19.1357 597.796 19.2555 598.213 19.2555C598.556 19.2555 598.86 19.211 599.127 19.122C599.394 19.033 599.62 18.944 599.805 18.855L599.887 19.6766C599.682 19.7724 599.422 19.8648 599.107 19.9538C598.792 20.036 598.443 20.0771 598.059 20.0771ZM598.573 15.2711C598.251 15.2711 597.96 15.3533 597.7 15.5176C597.44 15.675 597.224 15.8941 597.053 16.1748C596.889 16.4486 596.779 16.7636 596.724 17.1196C596.882 17.1469 597.039 17.1709 597.197 17.1914C597.361 17.2051 597.539 17.212 597.731 17.212C598.306 17.212 598.761 17.1332 599.096 16.9758C599.432 16.8115 599.6 16.5342 599.6 16.144C599.6 15.9044 599.504 15.699 599.312 15.5278C599.127 15.3567 598.881 15.2711 598.573 15.2711ZM601.69 14.6139C602.402 14.6139 602.758 14.922 602.758 15.5381V15.7538C602.957 15.3841 603.213 15.0828 603.528 14.8501C603.843 14.6105 604.21 14.4907 604.627 14.4907C604.997 14.4907 605.319 14.5865 605.592 14.7782C605.866 14.963 606.075 15.2232 606.219 15.5586C606.369 15.8873 606.445 16.2706 606.445 16.7088C606.445 17.2154 606.369 17.6775 606.219 18.0951C606.075 18.5059 605.877 18.8619 605.623 19.1631C605.37 19.4575 605.086 19.6834 604.771 19.8409C604.456 19.9983 604.131 20.0771 603.795 20.0771C603.467 20.0771 603.159 19.9949 602.871 19.8306C602.59 19.6663 602.371 19.4643 602.214 19.2247L601.69 22.2131H600.766L601.834 16.1029C601.854 15.9865 601.865 15.8907 601.865 15.8154C601.865 15.4936 601.697 15.3327 601.362 15.3327L601.69 14.6139ZM603.713 19.2555C604.035 19.2555 604.329 19.1528 604.596 18.9475C604.87 18.7352 605.089 18.4443 605.254 18.0746C605.418 17.7049 605.5 17.2804 605.5 16.8012C605.5 16.3357 605.394 15.9694 605.182 15.7024C604.969 15.4286 604.692 15.2916 604.35 15.2916C604.076 15.2916 603.812 15.3772 603.559 15.5484C603.313 15.7195 603.1 15.9591 602.922 16.2672C602.744 16.5753 602.618 16.9381 602.543 17.3557L602.358 18.3929C602.508 18.6668 602.703 18.879 602.943 19.0296C603.183 19.1802 603.439 19.2555 603.713 19.2555ZM608.371 18.1054C608.357 18.1944 608.347 18.2765 608.34 18.3519C608.333 18.4203 608.33 18.4819 608.33 18.5367C608.33 18.7695 608.398 18.9509 608.535 19.081C608.679 19.211 608.867 19.2761 609.1 19.2761C609.216 19.2761 609.333 19.2624 609.449 19.235C609.566 19.2076 609.672 19.17 609.767 19.122L609.86 19.8717C609.737 19.9333 609.593 19.9812 609.429 20.0155C609.264 20.0565 609.086 20.0771 608.895 20.0771C608.484 20.0771 608.131 19.9607 607.837 19.7279C607.549 19.4883 607.406 19.1289 607.406 18.6497C607.406 18.4717 607.419 18.2971 607.447 18.1259L608.453 12.3547H609.377L608.371 18.1054ZM612.611 20.0771C612.159 20.0771 611.758 19.9812 611.409 19.7895C611.067 19.591 610.796 19.3103 610.598 18.9475C610.406 18.5778 610.31 18.143 610.31 17.6433C610.31 17.0751 610.427 16.5513 610.659 16.0721C610.899 15.5929 611.234 15.2095 611.666 14.922C612.104 14.6344 612.614 14.4907 613.196 14.4907C613.593 14.4907 613.928 14.566 614.202 14.7166C614.483 14.8672 614.699 15.0623 614.849 15.3019C615 15.5415 615.075 15.7983 615.075 16.0721C615.075 16.4486 614.986 16.7601 614.808 17.0066C614.63 17.2531 614.401 17.4447 614.12 17.5817C613.839 17.7117 613.535 17.8042 613.206 17.8589C612.884 17.9137 612.576 17.9411 612.282 17.9411C612.097 17.9411 611.912 17.9342 611.727 17.9205C611.549 17.9 611.392 17.8795 611.255 17.8589C611.31 18.3108 611.471 18.6565 611.738 18.8961C612.005 19.1357 612.347 19.2555 612.765 19.2555C613.107 19.2555 613.412 19.211 613.679 19.122C613.946 19.033 614.171 18.944 614.356 18.855L614.438 19.6766C614.233 19.7724 613.973 19.8648 613.658 19.9538C613.343 20.036 612.994 20.0771 612.611 20.0771ZM613.124 15.2711C612.802 15.2711 612.511 15.3533 612.251 15.5176C611.991 15.675 611.775 15.8941 611.604 16.1748C611.44 16.4486 611.33 16.7636 611.276 17.1196C611.433 17.1469 611.59 17.1709 611.748 17.1914C611.912 17.2051 612.09 17.212 612.282 17.212C612.857 17.212 613.312 17.1332 613.648 16.9758C613.983 16.8115 614.151 16.5342 614.151 16.144C614.151 15.9044 614.055 15.699 613.863 15.5278C613.679 15.3567 613.432 15.2711 613.124 15.2711ZM616.457 16.1132C616.464 16.0789 616.467 16.0413 616.467 16.0002C616.474 15.9523 616.478 15.9044 616.478 15.8565C616.478 15.6648 616.423 15.5313 616.313 15.456C616.204 15.3738 616.06 15.3327 615.882 15.3327L616.2 14.6139C616.563 14.6139 616.841 14.7029 617.032 14.8809C617.231 15.052 617.33 15.3088 617.33 15.6511V15.8565C617.529 15.3704 617.782 15.0212 618.09 14.809C618.405 14.5968 618.761 14.4907 619.158 14.4907C619.315 14.4907 619.449 14.5043 619.558 14.5317C619.675 14.5523 619.771 14.5797 619.846 14.6139L619.435 15.5176C619.353 15.4833 619.267 15.4594 619.178 15.4457C619.089 15.432 618.987 15.4251 618.87 15.4251C618.624 15.4251 618.377 15.5141 618.131 15.6921C617.891 15.8633 617.672 16.1508 617.474 16.5548C617.282 16.9587 617.125 17.5132 617.001 18.2184L616.704 19.9538H615.779L616.457 16.1132Z" fill="white"/>
</g>
<rect x="157.463" y="62.1044" width="137.684" height="8.34447" rx="2.18853" fill="white" fill-opacity="0.6"/>
<rect x="157.463" y="81.5748" width="63.9743" height="8.34447" rx="2.18853" fill="white" fill-opacity="0.6"/>
<rect x="157.463" y="101.045" width="129.339" height="2.78149" rx="1.39075" fill="white" fill-opacity="0.3"/>
<rect x="157.463" y="114.953" width="95.9614" height="2.78149" rx="1.39075" fill="white" fill-opacity="0.3"/>
<rect x="157.463" y="128.86" width="112.65" height="2.78149" rx="1.39075" fill="white" fill-opacity="0.3"/>
<g clip-path="url(#clip18_1351_20058)">
<rect x="563.437" y="48.608" width="45.4121" height="4.37707" rx="2.18853" fill="white" fill-opacity="0.6"/>
<rect x="563.437" y="58.5481" width="95.9614" height="2.78149" rx="1.39075" fill="white" fill-opacity="0.3"/>
<g filter="url(#filter4_b_1351_20058)">
<rect x="563.437" y="66.8925" width="123.914" height="49.2919" rx="6.8461" fill="#5B0000" fill-opacity="0.22"/>
<path fill-rule="evenodd" clip-rule="evenodd" d="M585.344 105.231C592.906 105.231 599.036 99.1005 599.036 91.5385C599.036 83.9765 592.906 77.8463 585.344 77.8463C577.782 77.8463 571.651 83.9765 571.651 91.5385C571.651 99.1005 577.782 105.231 585.344 105.231Z" fill="white" fill-opacity="0.1" stroke="white" stroke-opacity="0.3" stroke-width="0.821532"/>
<g clip-path="url(#clip19_1351_20058)">
<path d="M588.082 91.5382L585.343 86.7459L582.605 91.5382L579.182 86.7459L579.866 95.6458H590.82L591.505 86.7459L588.082 91.5382Z" fill="#00CFFD" stroke="black" stroke-width="0.821532" stroke-miterlimit="10" stroke-linecap="round" stroke-linejoin="round"/>
<path fill-rule="evenodd" clip-rule="evenodd" d="M591.847 97.6996H578.839C578.648 97.6996 578.497 97.549 578.497 97.3573V95.9881C578.497 95.7964 578.648 95.6458 578.839 95.6458H591.847C592.039 95.6458 592.189 95.7964 592.189 95.9881V97.3573C592.189 97.549 592.039 97.6996 591.847 97.6996Z" fill="white" stroke="black" stroke-width="0.821532" stroke-miterlimit="10" stroke-linecap="round" stroke-linejoin="round"/>
<path d="M579.183 86.7465C579.561 86.7465 579.867 86.44 579.867 86.0619C579.867 85.6838 579.561 85.3773 579.183 85.3773C578.805 85.3773 578.498 85.6838 578.498 86.0619C578.498 86.44 578.805 86.7465 579.183 86.7465Z" stroke="black" stroke-width="0.821532" stroke-miterlimit="10" stroke-linecap="round" stroke-linejoin="round"/>
<path d="M591.506 86.746C591.884 86.746 592.191 86.4395 592.191 86.0614C592.191 85.6833 591.884 85.3768 591.506 85.3768C591.128 85.3768 590.821 85.6833 590.821 86.0614C590.821 86.4395 591.128 86.746 591.506 86.746Z" stroke="black" stroke-width="0.821532" stroke-miterlimit="10" stroke-linecap="round" stroke-linejoin="round"/>
<path d="M585.347 86.746C585.725 86.746 586.031 86.4395 586.031 86.0614C586.031 85.6833 585.725 85.3768 585.347 85.3768C584.969 85.3768 584.662 85.6833 584.662 86.0614C584.662 86.4395 584.969 86.746 585.347 86.746Z" stroke="black" stroke-width="0.821532" stroke-miterlimit="10" stroke-linecap="round" stroke-linejoin="round"/>
</g>
<g clip-path="url(#clip20_1351_20058)">
<path d="M610.051 82.077C609.551 82.077 609.1 82.2276 608.696 82.5289C608.292 82.8232 607.97 83.2306 607.73 83.7509C607.491 84.2643 607.371 84.8565 607.371 85.5275C607.371 86.2668 607.552 86.8316 607.915 87.2219C608.278 87.6121 608.74 87.8072 609.301 87.8072C609.623 87.8072 609.907 87.7627 610.154 87.6737C610.407 87.5847 610.654 87.4786 610.893 87.3554L611.057 88.2385C610.804 88.3549 610.523 88.4542 610.215 88.5363C609.907 88.6185 609.558 88.6595 609.168 88.6595C608.607 88.6595 608.114 88.5397 607.689 88.3001C607.272 88.0605 606.946 87.7148 606.714 87.2629C606.481 86.8043 606.364 86.2497 606.364 85.5993C606.364 84.9832 606.453 84.4115 606.631 83.8844C606.816 83.3504 607.076 82.8849 607.412 82.4878C607.747 82.0907 608.144 81.7826 608.603 81.5636C609.069 81.3376 609.579 81.2247 610.133 81.2247C610.537 81.2247 610.893 81.2794 611.201 81.389C611.509 81.4985 611.766 81.6115 611.971 81.7279L611.53 82.5289C611.324 82.3988 611.105 82.2927 610.873 82.2105C610.647 82.1215 610.373 82.077 610.051 82.077ZM613.998 88.6595C613.546 88.6595 613.145 88.5637 612.796 88.372C612.454 88.1735 612.183 87.8928 611.985 87.5299C611.793 87.1602 611.697 86.7255 611.697 86.2258C611.697 85.6575 611.814 85.1338 612.046 84.6546C612.286 84.1753 612.621 83.792 613.053 83.5044C613.491 83.2169 614.001 83.0731 614.583 83.0731C614.98 83.0731 615.315 83.1484 615.589 83.299C615.87 83.4497 616.086 83.6448 616.236 83.8844C616.387 84.124 616.462 84.3807 616.462 84.6546C616.462 85.0311 616.373 85.3426 616.195 85.5891C616.017 85.8355 615.788 86.0272 615.507 86.1641C615.226 86.2942 614.922 86.3866 614.593 86.4414C614.271 86.4962 613.963 86.5236 613.669 86.5236C613.484 86.5236 613.299 86.5167 613.114 86.503C612.936 86.4825 612.779 86.4619 612.642 86.4414C612.697 86.8933 612.858 87.239 613.125 87.4786C613.392 87.7182 613.734 87.838 614.152 87.838C614.494 87.838 614.799 87.7935 615.066 87.7045C615.333 87.6155 615.558 87.5265 615.743 87.4375L615.825 88.259C615.62 88.3549 615.36 88.4473 615.045 88.5363C614.73 88.6185 614.381 88.6595 613.998 88.6595ZM614.511 83.8536C614.189 83.8536 613.898 83.9357 613.638 84.1C613.378 84.2575 613.162 84.4766 612.991 84.7573C612.827 85.0311 612.717 85.346 612.663 85.702C612.82 85.7294 612.977 85.7534 613.135 85.7739C613.299 85.7876 613.477 85.7945 613.669 85.7945C614.244 85.7945 614.699 85.7157 615.035 85.5583C615.37 85.394 615.538 85.1167 615.538 84.7265C615.538 84.4868 615.442 84.2815 615.25 84.1103C615.066 83.9392 614.819 83.8536 614.511 83.8536ZM617.844 84.6957C617.851 84.6614 617.854 84.6238 617.854 84.5827C617.861 84.5348 617.865 84.4868 617.865 84.4389C617.865 84.2472 617.81 84.1137 617.7 84.0384C617.591 83.9563 617.447 83.9152 617.269 83.9152L617.587 83.1964C617.95 83.1964 618.227 83.2854 618.419 83.4634C618.618 83.6345 618.717 83.8912 618.717 84.2335V84.4389C618.916 83.9529 619.169 83.6037 619.477 83.3915C619.792 83.1792 620.148 83.0731 620.545 83.0731C620.702 83.0731 620.836 83.0868 620.945 83.1142C621.062 83.1347 621.158 83.1621 621.233 83.1964L620.822 84.1C620.74 84.0658 620.654 84.0419 620.565 84.0282C620.476 84.0145 620.374 84.0076 620.257 84.0076C620.011 84.0076 619.764 84.0966 619.518 84.2746C619.278 84.4458 619.059 84.7333 618.861 85.1372C618.669 85.5411 618.512 86.0957 618.388 86.8008L618.091 88.5363H617.166L617.844 84.6957ZM621.56 83.3915H622.504L622.997 81.7073H623.706L623.408 83.3915H624.887L624.753 84.1925H623.264L622.833 86.6879C622.819 86.7632 622.809 86.8351 622.802 86.9035C622.795 86.9651 622.792 87.0233 622.792 87.0781C622.792 87.3177 622.864 87.506 623.007 87.6429C623.151 87.773 623.34 87.838 623.572 87.838C623.771 87.838 623.939 87.8106 624.075 87.7559C624.212 87.6942 624.336 87.6326 624.445 87.571L624.558 88.372C624.428 88.4473 624.264 88.5124 624.065 88.5671C623.874 88.6287 623.658 88.6595 623.418 88.6595C623.165 88.6595 622.918 88.6082 622.679 88.5055C622.446 88.4028 622.254 88.2419 622.104 88.0229C621.953 87.7969 621.878 87.506 621.878 87.15C621.878 86.9994 621.892 86.8316 621.919 86.6468L622.34 84.1925H621.426L621.56 83.3915ZM626.998 82.2824C626.807 82.2824 626.659 82.2276 626.557 82.1181C626.461 82.0017 626.413 81.8682 626.413 81.7176C626.413 81.4985 626.481 81.3239 626.618 81.1939C626.755 81.057 626.926 80.9885 627.132 80.9885C627.324 80.9885 627.467 81.0467 627.563 81.1631C627.666 81.2726 627.717 81.4027 627.717 81.5533C627.717 81.7655 627.649 81.9401 627.512 82.077C627.375 82.2139 627.204 82.2824 626.998 82.2824ZM626.31 88.5363H625.386L626.321 83.1964H627.245L626.31 88.5363ZM630.129 83.3915H631.71L631.567 84.1925H629.985L629.082 89.2757C628.972 89.8782 628.767 90.3026 628.465 90.5491C628.171 90.7955 627.812 90.9188 627.387 90.9188C627.161 90.9188 626.956 90.888 626.771 90.8263C626.579 90.7647 626.412 90.6791 626.268 90.5696L626.637 89.8097C626.733 89.8987 626.846 89.9706 626.976 90.0253C627.106 90.087 627.247 90.1178 627.397 90.1178C627.582 90.1178 627.743 90.0527 627.88 89.9227C628.017 89.7926 628.109 89.5838 628.157 89.2962L629.061 84.1925H628.239L628.383 83.3915H629.205L629.359 82.5699C629.475 81.9401 629.698 81.4917 630.026 81.2247C630.362 80.9508 630.783 80.8139 631.289 80.8139C631.57 80.8139 631.83 80.8516 632.07 80.9269C632.309 80.9953 632.525 81.0809 632.717 81.1836L632.357 81.9641C632.2 81.8819 632.036 81.8066 631.864 81.7381C631.7 81.6697 631.505 81.6354 631.279 81.6354C631.026 81.6354 630.81 81.7108 630.632 81.8614C630.454 82.0051 630.338 82.2311 630.283 82.5391L630.129 83.3915ZM633.447 82.2824C633.255 82.2824 633.108 82.2276 633.005 82.1181C632.909 82.0017 632.861 81.8682 632.861 81.7176C632.861 81.4985 632.93 81.3239 633.067 81.1939C633.204 81.057 633.375 80.9885 633.58 80.9885C633.772 80.9885 633.916 81.0467 634.011 81.1631C634.114 81.2726 634.165 81.4027 634.165 81.5533C634.165 81.7655 634.097 81.9401 633.96 82.077C633.823 82.2139 633.652 82.2824 633.447 82.2824ZM632.759 88.5363H631.834L632.769 83.1964H633.693L632.759 88.5363ZM638.508 84.2746C638.337 84.1651 638.152 84.0761 637.953 84.0076C637.755 83.9323 637.536 83.8947 637.296 83.8947C636.92 83.8947 636.588 83.9939 636.3 84.1925C636.019 84.391 635.8 84.6614 635.643 85.0037C635.485 85.3392 635.407 85.7191 635.407 86.1436C635.407 86.6639 635.537 87.0781 635.797 87.3862C636.064 87.6874 636.42 87.838 636.865 87.838C637.125 87.838 637.354 87.8072 637.553 87.7456C637.751 87.684 637.933 87.6121 638.097 87.5299L638.21 88.3412C638.039 88.4165 637.83 88.4884 637.584 88.5569C637.344 88.6253 637.053 88.6595 636.711 88.6595C636.266 88.6595 635.872 88.5603 635.53 88.3617C635.194 88.1632 634.931 87.8859 634.739 87.5299C634.554 87.1671 634.462 86.7461 634.462 86.2668C634.462 85.6918 634.578 85.1646 634.811 84.6854C635.051 84.1993 635.386 83.8091 635.817 83.5147C636.256 83.2203 636.772 83.0731 637.368 83.0731C637.69 83.0731 637.974 83.1142 638.22 83.1964C638.474 83.2717 638.696 83.3675 638.888 83.4839L638.508 84.2746ZM639.035 86.4311C639.035 85.7671 639.179 85.1851 639.466 84.6854C639.761 84.1788 640.164 83.7851 640.678 83.5044C641.191 83.2169 641.777 83.0731 642.434 83.0731C642.838 83.0731 643.19 83.1142 643.492 83.1964C643.8 83.2785 644.053 83.3607 644.252 83.4428L643.605 87.0884C643.598 87.1226 643.591 87.1637 643.584 87.2116C643.584 87.2527 643.584 87.2972 643.584 87.3451C643.584 87.5368 643.639 87.6737 643.748 87.7559C643.858 87.8312 644.002 87.8688 644.18 87.8688L643.861 88.5877C643.492 88.5877 643.208 88.4987 643.009 88.3207C642.817 88.1358 642.721 87.8517 642.721 87.4683C642.53 87.7969 642.287 88.0776 641.992 88.3104C641.705 88.5432 641.366 88.6595 640.976 88.6595C640.64 88.6595 640.325 88.5705 640.031 88.3925C639.737 88.2077 639.497 87.951 639.312 87.6224C639.127 87.2869 639.035 86.8898 639.035 86.4311ZM643.235 83.9871C643.105 83.946 642.968 83.9152 642.824 83.8947C642.687 83.8673 642.519 83.8536 642.321 83.8536C641.849 83.8536 641.438 83.9597 641.089 84.1719C640.74 84.3842 640.466 84.6785 640.267 85.0551C640.075 85.4248 639.98 85.8458 639.98 86.3182C639.98 86.6468 640.038 86.9241 640.154 87.15C640.277 87.3759 640.435 87.5471 640.627 87.6634C640.818 87.7798 641.017 87.838 641.222 87.838C641.503 87.838 641.76 87.7422 641.992 87.5505C642.225 87.3588 642.424 87.0918 642.588 86.7495C642.759 86.4072 642.882 86.017 642.958 85.5788L643.235 83.9871ZM650.012 88.5877C649.642 88.5877 649.358 88.4987 649.159 88.3207C648.968 88.1358 648.872 87.8483 648.872 87.4581C648.673 87.7867 648.423 88.0708 648.122 88.3104C647.821 88.5432 647.472 88.6595 647.075 88.6595C646.732 88.6595 646.411 88.5705 646.109 88.3925C645.808 88.2077 645.565 87.951 645.38 87.6224C645.202 87.2869 645.113 86.8898 645.113 86.4311C645.113 85.904 645.192 85.435 645.349 85.0243C645.507 84.6067 645.716 84.2541 645.976 83.9665C646.243 83.679 646.534 83.4599 646.849 83.3093C647.171 83.1519 647.496 83.0731 647.824 83.0731C648.187 83.0731 648.499 83.1621 648.759 83.3401C649.026 83.5181 649.231 83.7372 649.375 83.9974L649.919 80.9371H650.843L649.755 87.0884C649.748 87.1226 649.741 87.1637 649.734 87.2116C649.734 87.2527 649.734 87.2972 649.734 87.3451C649.734 87.5368 649.789 87.6737 649.899 87.7559C650.008 87.8312 650.152 87.8688 650.33 87.8688L650.012 88.5877ZM647.321 87.838C647.581 87.838 647.828 87.7559 648.061 87.5916C648.3 87.4272 648.506 87.1979 648.677 86.9035C648.855 86.6023 648.978 86.2497 649.046 85.8458L649.231 84.7881C649.094 84.5005 648.909 84.278 648.677 84.1206C648.444 83.9563 648.187 83.8741 647.906 83.8741C647.592 83.8741 647.29 83.9734 647.003 84.1719C646.722 84.3636 646.493 84.6409 646.315 85.0037C646.144 85.3597 646.058 85.791 646.058 86.2976C646.058 86.6331 646.116 86.9172 646.233 87.15C646.356 87.3759 646.513 87.5471 646.705 87.6634C646.904 87.7798 647.109 87.838 647.321 87.838ZM653.724 88.6595C653.218 88.6595 652.78 88.5569 652.41 88.3515C652.04 88.1461 651.753 87.862 651.547 87.4991C651.349 87.1294 651.25 86.7118 651.25 86.2463C651.25 85.6507 651.369 85.1133 651.609 84.634C651.855 84.1548 652.198 83.7749 652.636 83.4942C653.074 83.2135 653.591 83.0731 654.186 83.0731C654.693 83.0731 655.131 83.1758 655.501 83.3812C655.871 83.5866 656.155 83.8707 656.353 84.2335C656.559 84.5964 656.661 85.014 656.661 85.4864C656.661 86.0751 656.542 86.6126 656.302 87.0986C656.062 87.5779 655.72 87.9578 655.275 88.2385C654.837 88.5192 654.32 88.6595 653.724 88.6595ZM653.755 87.838C654.166 87.838 654.515 87.7387 654.803 87.5402C655.097 87.3348 655.323 87.061 655.48 86.7187C655.638 86.3764 655.717 85.993 655.717 85.5685C655.717 85.2536 655.655 84.9729 655.532 84.7265C655.409 84.4732 655.231 84.2712 654.998 84.1206C654.765 83.97 654.484 83.8947 654.156 83.8947C653.752 83.8947 653.403 83.9974 653.108 84.2027C652.814 84.4013 652.588 84.6717 652.43 85.014C652.273 85.3563 652.194 85.7397 652.194 86.1641C652.194 86.4722 652.256 86.7529 652.379 87.0062C652.502 87.2595 652.68 87.4615 652.913 87.6121C653.146 87.7627 653.427 87.838 653.755 87.838Z" fill="white"/>
<rect x="605.882" y="94.5977" width="45.8946" height="2.78149" rx="1.39075" fill="white" fill-opacity="0.3"/>
<g clip-path="url(#clip21_1351_20058)">
<rect x="605.882" y="100.118" width="68.461" height="3.42305" rx="1.71153" fill="black" fill-opacity="0.2"/>
<rect x="606.566" y="100.802" width="41.0766" height="2.05383" rx="1.02692" fill="#00CFFD" stroke="black" stroke-opacity="0.05" stroke-width="0.247119"/>
</g>
</g>
</g>
</g>
<rect x="136.921" y="34.2318" width="564.119" height="0.342305" fill="white" fill-opacity="0.2"/>
<rect y="372.427" width="136.922" height="0.68461" fill="white" fill-opacity="0.05"/>
<rect x="145.139" y="7.53079" width="25.3306" height="19.1691" rx="2.73844" fill="black" fill-opacity="0.2"/>
<rect x="669.55" y="7.53079" width="23.2767" height="19.1691" rx="2.73844" fill="black" fill-opacity="0.2"/>
<defs>
<filter id="filter0_d_1351_20058" x="174.62" y="-217.619" width="606.946" height="513.684" filterUnits="userSpaceOnUse" color-interpolation-filters="sRGB">
<feFlood flood-opacity="0" result="BackgroundImageFix"/>
<feColorMatrix in="SourceAlpha" type="matrix" values="0 0 0 0 0 0 0 0 0 0 0 0 0 0 0 0 0 0 127 0" result="hardAlpha"/>
<feOffset/>
<feGaussianBlur stdDeviation="30.3029"/>
<feColorMatrix type="matrix" values="0 0 0 0 0.129427 0 0 0 0 0.224219 0 0 0 0 0.4375 0 0 0 0.3 0"/>
<feBlend mode="normal" in2="BackgroundImageFix" result="effect1_dropShadow_1351_20058"/>
<feBlend mode="normal" in="SourceGraphic" in2="effect1_dropShadow_1351_20058" result="shape"/>
</filter>
<filter id="filter1_d_1351_20058" x="181.137" y="-230.558" width="603.613" height="512.293" filterUnits="userSpaceOnUse" color-interpolation-filters="sRGB">
<feFlood flood-opacity="0" result="BackgroundImageFix"/>
<feColorMatrix in="SourceAlpha" type="matrix" values="0 0 0 0 0 0 0 0 0 0 0 0 0 0 0 0 0 0 127 0" result="hardAlpha"/>
<feOffset/>
<feGaussianBlur stdDeviation="30.3029"/>
<feColorMatrix type="matrix" values="0 0 0 0 0.129427 0 0 0 0 0.224219 0 0 0 0 0.4375 0 0 0 0.3 0"/>
<feBlend mode="normal" in2="BackgroundImageFix" result="effect1_dropShadow_1351_20058"/>
<feBlend mode="normal" in="SourceGraphic" in2="effect1_dropShadow_1351_20058" result="shape"/>
</filter>
<filter id="filter2_d_1351_20058" x="215.64" y="-202.946" width="551.913" height="464.951" filterUnits="userSpaceOnUse" color-interpolation-filters="sRGB">
<feFlood flood-opacity="0" result="BackgroundImageFix"/>
<feColorMatrix in="SourceAlpha" type="matrix" values="0 0 0 0 0 0 0 0 0 0 0 0 0 0 0 0 0 0 127 0" result="hardAlpha"/>
<feOffset/>
<feGaussianBlur stdDeviation="30.3029"/>
<feColorMatrix type="matrix" values="0 0 0 0 0.129427 0 0 0 0 0.224219 0 0 0 0 0.4375 0 0 0 0.3 0"/>
<feBlend mode="normal" in2="BackgroundImageFix" result="effect1_dropShadow_1351_20058"/>
<feBlend mode="normal" in="SourceGraphic" in2="effect1_dropShadow_1351_20058" result="shape"/>
</filter>
<filter id="filter3_d_1351_20058" x="174.423" y="-261.261" width="622.803" height="528.451" filterUnits="userSpaceOnUse" color-interpolation-filters="sRGB">
<feFlood flood-opacity="0" result="BackgroundImageFix"/>
<feColorMatrix in="SourceAlpha" type="matrix" values="0 0 0 0 0 0 0 0 0 0 0 0 0 0 0 0 0 0 127 0" result="hardAlpha"/>
<feOffset/>
<feGaussianBlur stdDeviation="30.3029"/>
<feColorMatrix type="matrix" values="0 0 0 0 0.129427 0 0 0 0 0.224219 0 0 0 0 0.4375 0 0 0 0.3 0"/>
<feBlend mode="normal" in2="BackgroundImageFix" result="effect1_dropShadow_1351_20058"/>
<feBlend mode="normal" in="SourceGraphic" in2="effect1_dropShadow_1351_20058" result="shape"/>
</filter>
<filter id="filter4_b_1351_20058" x="549.744" y="53.2003" width="151.298" height="76.6763" filterUnits="userSpaceOnUse" color-interpolation-filters="sRGB">
<feFlood flood-opacity="0" result="BackgroundImageFix"/>
<feGaussianBlur in="BackgroundImageFix" stdDeviation="6.8461"/>
<feComposite in2="SourceAlpha" operator="in" result="effect1_backgroundBlur_1351_20058"/>
<feBlend mode="normal" in="SourceGraphic" in2="effect1_backgroundBlur_1351_20058" result="shape"/>
</filter>
<linearGradient id="paint0_linear_1351_20058" x1="158.148" y1="122.068" x2="525.721" y2="355.313" gradientUnits="userSpaceOnUse">
<stop stop-color="#E1467C"/>
<stop offset="1" stop-color="#FF9CE3"/>
</linearGradient>
<linearGradient id="paint1_linear_1351_20058" x1="611.192" y1="8.8679" x2="490.079" y2="27.1225" gradientUnits="userSpaceOnUse">
<stop stop-color="#F68B2E"/>
<stop offset="1" stop-color="#F6BB5C"/>
</linearGradient>
<linearGradient id="paint2_linear_1351_20058" x1="694.116" y1="133.879" x2="284.233" y2="-93.3232" gradientUnits="userSpaceOnUse">
<stop stop-color="#FF5A3D"/>
<stop offset="1" stop-color="#2FB8FF"/>
</linearGradient>
<linearGradient id="paint3_linear_1351_20058" x1="681.82" y1="127.106" x2="311.944" y2="-77.9193" gradientUnits="userSpaceOnUse">
<stop stop-color="#FF5A3D"/>
<stop offset="1" stop-color="#2FB8FF"/>
</linearGradient>
<linearGradient id="paint4_linear_1351_20058" x1="704.013" y1="114.851" x2="280.513" y2="-119.899" gradientUnits="userSpaceOnUse">
<stop stop-color="#FF6C6C"/>
<stop offset="1" stop-color="#2FB8FF"/>
</linearGradient>
<clipPath id="clip0_1351_20058">
<rect width="16.4306" height="16.4306" fill="white" transform="translate(17.7998 391.94)"/>
</clipPath>
<clipPath id="clip1_1351_20058">
<rect width="75.3071" height="21.1146" fill="white" transform="translate(46.5547 389.598)"/>
</clipPath>
<clipPath id="clip2_1351_20058">
<rect x="46.5547" y="407.29" width="75.3071" height="3.42305" rx="1.71153" fill="white"/>
</clipPath>
<clipPath id="clip3_1351_20058">
<rect width="136.922" height="310.263" fill="white" transform="translate(0 39.982)"/>
</clipPath>
<clipPath id="clip4_1351_20058">
<rect width="55.0105" height="16.4306" fill="white" transform="translate(13.6914 76.4011)"/>
</clipPath>
<clipPath id="clip5_1351_20058">
<rect width="69.1713" height="16.4306" fill="white" transform="translate(13.6914 101.047)"/>
</clipPath>
<clipPath id="clip6_1351_20058">
<rect width="69.1713" height="16.4306" fill="white" transform="translate(13.6914 125.693)"/>
</clipPath>
<clipPath id="clip7_1351_20058">
<rect width="55.0105" height="16.4306" fill="white" transform="translate(13.6914 174.985)"/>
</clipPath>
<clipPath id="clip8_1351_20058">
<rect width="16.4306" height="16.4306" fill="white" transform="translate(13.6914 174.985)"/>
</clipPath>
<clipPath id="clip9_1351_20058">
<rect width="60.8269" height="16.4306" fill="white" transform="translate(13.6914 198.262)"/>
</clipPath>
<clipPath id="clip10_1351_20058">
<rect width="64.9991" height="16.4306" fill="white" transform="translate(13.6914 221.538)"/>
</clipPath>
<clipPath id="clip11_1351_20058">
<rect width="16.4306" height="16.4306" fill="white" transform="translate(13.6914 221.538)"/>
</clipPath>
<clipPath id="clip12_1351_20058">
<rect width="46.9194" height="16.4306" fill="white" transform="translate(13.6914 274.938)"/>
</clipPath>
<clipPath id="clip13_1351_20058">
<rect width="16.4306" height="16.4306" fill="white" transform="translate(13.6914 274.938)"/>
</clipPath>
<clipPath id="clip14_1351_20058">
<rect width="55.0105" height="16.4306" fill="white" transform="translate(13.6914 298.215)"/>
</clipPath>
<clipPath id="clip15_1351_20058">
<rect width="74.7343" height="16.4306" fill="white" transform="translate(13.6914 321.491)"/>
</clipPath>
<clipPath id="clip16_1351_20058">
<rect width="36.9689" height="8.21532" fill="white" transform="translate(13.6943 13.6924)"/>
</clipPath>
<clipPath id="clip17_1351_20058">
<rect width="42.4458" height="12.323" fill="white" transform="translate(589.452 10.9538)"/>
</clipPath>
<clipPath id="clip18_1351_20058">
<rect width="123.914" height="67.5764" fill="white" transform="translate(563.437 48.608)"/>
</clipPath>
<clipPath id="clip19_1351_20058">
<rect width="16.4306" height="16.4306" fill="white" transform="translate(577.131 83.3222)"/>
</clipPath>
<clipPath id="clip20_1351_20058">
<rect width="73.2533" height="24.0044" fill="white" transform="translate(605.882 79.5363)"/>
</clipPath>
<clipPath id="clip21_1351_20058">
<rect x="605.882" y="100.118" width="68.461" height="3.42305" rx="1.71153" fill="white"/>
</clipPath>
</defs>
</svg>
